<?xml version="1.0" encoding="UTF-8" standalone="no"?><!DOCTYPE svg PUBLIC "-//W3C//DTD SVG 1.1//EN" "http://www.w3.org/Graphics/SVG/1.1/DTD/svg11.dtd"><svg width="100%" height="100%" viewBox="0 0 154 177" version="1.1" xmlns="http://www.w3.org/2000/svg" xmlns:xlink="http://www.w3.org/1999/xlink" xml:space="preserve" xmlns:serif="http://www.serif.com/" style="fill-rule:evenodd;clip-rule:evenodd;stroke-linecap:round;stroke-linejoin:round;stroke-miterlimit:1.5;"><path d="M32.966,115.588l30.678,-18.013" style="fill:none;stroke:#08e19c;stroke-width:3px;"/><path d="M32.966,44.949l28.678,-15.869" style="fill:none;stroke:#08e19c;stroke-width:3px;"/><path d="M121.559,62.131l-27.915,18.444" style="fill:none;stroke:#08e19c;stroke-width:3px;"/><path d="M92.41,28.561l29.649,17.845" style="fill:none;stroke:#08e19c;stroke-width:3px;"/><path d="M62.644,149.112l-29.137,-17.537" style="fill:none;stroke:#08e19c;stroke-width:3px;"/><path d="M122.374,131.047l-29.73,17.528" style="fill:none;stroke:#08e19c;stroke-width:3px;"/><path d="M17.75,105.668l-0.377,-34.602" style="fill:none;stroke:#08e19c;stroke-width:3px;"/><path d="M136.457,106.852l-0.377,-34.602" style="fill:none;stroke:#08e19c;stroke-width:3px;"/><path d="M123.163,115.745l-30.519,-18.17" style="fill:none;stroke:#08e19c;stroke-width:3px;"/><path d="M32.644,61.575l29.971,18.243" style="fill:none;stroke:#08e19c;stroke-width:3px;"/><g><path d="M122.041,45.681l14.528,8.396l14.841,-8.354" style="fill:none;stroke:#08e19c;stroke-width:4px;"/><path d="M136.68,36.575l14.964,8.639l0,17.28l-14.964,8.639l-14.964,-8.639l0,-17.28l14.964,-8.639Z" style="fill:none;stroke:#08e19c;stroke-width:4px;"/><path d="M136.83,53.829l0,17.32" style="fill:none;stroke:#08e19c;stroke-width:4px;"/></g><g><path d="M2.325,45.681l14.528,8.396l14.842,-8.354" style="fill:none;stroke:#08e19c;stroke-width:4px;"/><path d="M16.964,36.575l14.965,8.639l0,17.28l-14.965,8.639l-14.964,-8.639l0,-17.28l14.964,-8.639Z" style="fill:none;stroke:#08e19c;stroke-width:4px;"/><path d="M17.114,53.829l0,17.32" style="fill:none;stroke:#08e19c;stroke-width:4px;"/></g><g><path d="M63.041,11.106l14.528,8.396l14.841,-8.354" style="fill:none;stroke:#08e19c;stroke-width:4px;"/><path d="M77.68,2l14.964,8.64l0,17.279l-14.964,8.64l-14.964,-8.64l0,-17.279l14.964,-8.64Z" style="fill:none;stroke:#08e19c;stroke-width:4px;"/><path d="M77.83,19.254l0,17.321" style="fill:none;stroke:#08e19c;stroke-width:4px;"/></g><g><path d="M63.041,80.77l14.528,8.396l14.841,-8.354" style="fill:none;stroke:#08e19c;stroke-width:4px;"/><path d="M77.68,71.664l14.964,8.64l0,17.279l-14.964,8.64l-14.964,-8.64l0,-17.279l14.964,-8.64Z" style="fill:none;stroke:#08e19c;stroke-width:4px;"/><path d="M77.83,88.918l0,17.321" style="fill:none;stroke:#08e19c;stroke-width:4px;"/></g><g><path d="M63.041,149.114l14.528,8.396l14.841,-8.354" style="fill:none;stroke:#08e19c;stroke-width:4px;"/><path d="M77.68,140.008l14.964,8.639l0,17.28l-14.964,8.639l-14.964,-8.639l0,-17.28l14.964,-8.639Z" style="fill:none;stroke:#08e19c;stroke-width:4px;"/><path d="M77.83,157.262l0,17.321" style="fill:none;stroke:#08e19c;stroke-width:4px;"/></g><g><path d="M121.733,114.618l14.528,8.396l14.842,-8.354" style="fill:none;stroke:#08e19c;stroke-width:4px;"/><path d="M136.373,105.512l14.964,8.639l0,17.28l-14.964,8.639l-14.965,-8.639l0,-17.28l14.965,-8.639Z" style="fill:none;stroke:#08e19c;stroke-width:4px;"/><path d="M136.522,122.766l0,17.32" style="fill:none;stroke:#08e19c;stroke-width:4px;"/></g><g><path d="M2.886,115.618l14.527,8.396l14.842,-8.354" style="fill:none;stroke:#08e19c;stroke-width:4px;"/><path d="M17.525,106.512l14.964,8.639l0,17.28l-14.964,8.639l-14.964,-8.639l0,-17.28l14.964,-8.639Z" style="fill:none;stroke:#08e19c;stroke-width:4px;"/><path d="M17.674,123.766l0,17.32" style="fill:none;stroke:#08e19c;stroke-width:4px;"/></g></svg>